<?xml version="1.0" standalone="no"?>
<!DOCTYPE svg PUBLIC "-//W3C//DTD SVG 20010904//EN"
 "http://www.w3.org/TR/2001/REC-SVG-20010904/DTD/svg10.dtd">
<svg version="1.0" xmlns="http://www.w3.org/2000/svg"
 width="16.000000pt" height="16.000000pt" viewBox="0 0 16.000000 16.000000"
 preserveAspectRatio="xMidYMid meet">
<metadata>
Created by potrace 1.11, written by Peter Selinger 2001-2013
</metadata>
<g transform="translate(0.000000,16.000000) scale(0.002286,-0.002286)"
fill="#000000" stroke="none">
<path d="M2358 5463 l-58 -4 0 -48 0 -49 -105 -7 -105 -7 0 -48 0 -49 -57 -3
-58 -3 -3 -52 -3 -52 -52 -3 -52 -3 -3 -52 -3 -53 -48 0 -49 0 -7 -110 -7
-110 -54 0 -54 0 0 -82 c0 -46 3 -120 7 -165 l6 -83 47 0 48 0 7 110 7 110 54
0 54 0 0 110 0 110 55 0 55 0 0 55 0 55 105 0 105 0 0 50 0 50 165 0 165 0 0
-50 0 -50 110 0 110 0 0 -55 0 -55 55 0 55 0 0 -110 0 -110 55 0 55 0 0 -110
0 -110 -55 0 -55 0 0 -110 0 -110 -55 0 -55 0 0 -215 0 -215 -55 0 -55 0 0
-165 0 -165 -55 0 -55 0 0 -110 0 -110 -55 0 -55 0 0 -110 0 -110 -55 0 -55 0
0 -110 0 -110 -55 0 -55 0 0 -55 0 -55 -49 0 -49 0 -7 -105 -7 -105 -54 0 -54
0 0 -55 0 -55 -55 0 -55 0 0 -55 0 -55 -55 0 -55 0 0 -54 0 -54 -105 -7 -105
-7 0 -49 0 -49 -60 0 -60 0 0 -55 0 -55 -132 0 c-73 0 -170 -3 -215 -7 l-83
-6 0 -48 0 -49 -165 0 -165 0 0 49 0 48 -82 6 c-46 4 -120 7 -165 7 l-83 0 0
275 0 275 55 0 55 0 0 105 0 105 -110 0 -110 0 0 -110 0 -110 -55 0 -55 0 0
-385 0 -385 55 0 55 0 0 -50 0 -50 55 0 55 0 0 -55 0 -55 385 0 385 0 0 55 0
55 110 0 110 0 0 49 0 49 105 7 105 7 0 48 0 49 58 3 57 3 3 52 3 53 55 0 54
0 0 55 0 55 55 0 55 0 0 55 0 55 55 0 55 0 0 54 0 55 53 3 52 3 3 58 3 57 49
0 48 0 7 105 7 105 49 0 49 0 0 55 0 55 55 0 55 0 0 110 0 110 55 0 55 0 0
110 0 110 55 0 55 0 0 160 0 160 55 0 55 0 0 115 0 115 55 0 55 0 0 160 0 160
55 0 55 0 0 165 0 165 55 0 55 0 0 -220 0 -220 55 0 55 0 0 -815 0 -815 -55 0
-55 0 0 -220 0 -220 55 0 55 0 0 50 0 50 55 0 55 0 0 55 0 55 55 0 55 0 0 54
0 55 53 3 52 3 3 107 3 107 52 3 52 3 3 108 3 107 54 0 55 0 0 55 0 55 49 0
49 0 7 110 7 110 48 0 48 0 7 110 7 110 49 0 49 0 0 55 0 55 54 0 54 0 7 105
7 104 51 3 52 3 3 52 3 52 52 3 52 3 3 52 3 52 52 3 52 3 3 58 3 57 49 0 50 0
0 105 0 105 55 0 55 0 0 55 0 55 55 0 55 0 0 -105 0 -105 -55 0 -55 0 0 -165
0 -165 -55 0 -55 0 0 -165 0 -165 -49 0 -48 0 -6 -82 c-4 -46 -7 -145 -7 -220
l0 -138 -49 0 -48 0 -6 -82 c-4 -46 -7 -145 -7 -220 l0 -138 -49 0 -49 0 -7
-112 c-3 -62 -5 -185 -3 -273 l3 -160 52 -3 52 -3 3 -52 3 -52 108 -3 107 -3
0 56 0 55 110 0 110 0 0 55 0 55 110 0 110 0 0 55 0 55 55 0 55 0 0 55 0 55
55 0 55 0 0 -55 0 -55 55 0 55 0 0 -49 0 -49 113 -7 c61 -3 159 -5 217 -3
l105 3 3 53 3 52 110 0 109 0 0 55 0 54 108 3 107 3 3 53 3 52 55 0 54 0 0 60
0 60 50 0 50 0 0 49 0 49 -99 7 c-55 4 -104 4 -110 0 -6 -3 -11 -28 -11 -56
l0 -49 -55 0 -55 0 0 -55 0 -55 -270 0 -270 0 0 105 0 105 -55 0 -55 0 0 440
0 440 55 0 55 0 0 159 0 160 53 3 52 3 3 107 3 107 52 3 52 3 3 108 3 107 54
0 55 0 0 55 0 55 55 0 55 0 0 55 0 55 385 0 385 0 0 55 0 55 50 0 50 0 0 55 0
55 -105 0 -105 0 0 55 0 55 -220 0 -220 0 0 -55 0 -55 -115 0 -115 0 0 -55 0
-55 -55 0 -55 0 0 -55 0 -55 -55 0 -55 0 0 -50 0 -50 -55 0 -55 0 0 -55 0 -55
-50 0 -50 0 0 -60 0 -60 -55 0 -55 0 0 -105 0 -105 -55 0 -55 0 0 -110 0 -110
-55 0 -55 0 0 -110 0 -110 -55 0 -55 0 0 -220 0 -220 -55 0 -55 0 0 -270 0
-270 55 0 55 0 0 -55 0 -55 -55 0 -55 0 0 -55 0 -55 -55 0 -55 0 0 -55 0 -55
-110 0 -110 0 0 435 0 435 55 0 55 0 0 220 0 220 55 0 55 0 0 215 0 215 55 0
55 0 0 165 0 165 55 0 55 0 0 110 0 110 55 0 55 0 0 110 0 110 55 0 55 0 0
110 0 110 110 0 110 0 0 55 0 55 110 0 110 0 0 55 0 55 -220 0 -220 0 0 -55 0
-55 -55 0 -55 0 0 -55 0 -55 -55 0 -55 0 0 -55 0 -55 -55 0 -55 0 0 -55 0 -55
-55 0 -55 0 0 -55 0 -55 -55 0 -55 0 0 -55 0 -55 -55 0 -55 0 0 -55 0 -55 -55
0 -55 0 0 -104 0 -105 -52 -3 -53 -3 -3 -52 -3 -52 -52 -3 -52 -3 -3 -57 -3
-58 -48 0 -49 0 -7 -105 -7 -105 -48 0 -49 0 -3 -57 -3 -58 -52 -3 -51 -3 -7
-104 -7 -105 -49 0 -49 0 0 -55 0 -55 -54 0 -54 0 -7 -110 -7 -110 -54 0 -54
0 0 -55 0 -55 -55 0 -55 0 0 -110 0 -110 -55 0 -55 0 0 -50 0 -50 -50 0 -50 0
0 925 0 925 -55 0 -55 0 0 220 0 220 -55 0 -55 0 0 110 0 110 -55 0 -55 0 0
110 0 110 -55 0 -55 0 0 55 0 55 -110 0 -110 0 0 55 0 55 -162 -2 c-90 -1
-189 -3 -220 -5z"/>
</g>
</svg>
